<?xml version="1.0" standalone="no"?><!DOCTYPE svg PUBLIC "-//W3C//DTD SVG 1.1//EN" "http://www.w3.org/Graphics/SVG/1.1/DTD/svg11.dtd"><svg t="1505440589894" class="icon" style="" viewBox="0 0 1024 1024" version="1.1" xmlns="http://www.w3.org/2000/svg" p-id="1437" xmlns:xlink="http://www.w3.org/1999/xlink" width="200" height="200"><defs><style type="text/css"></style></defs><path d="M647.763 490.982c12.499-12.499 32.755-12.499 45.253 0v0c12.499 12.499 12.499 32.755 0 45.253l-316.781 316.781c-12.499 12.499-32.755 12.499-45.253 0v0c-12.499-12.499-12.499-32.755 0-45.253l316.781-316.781z" fill="#bfbfbf" p-id="1438"></path><path d="M330.982 216.237c-12.499-12.499-12.499-32.755 0-45.253v0c12.499-12.499 32.755-12.499 45.253 0l316.781 316.781c12.499 12.499 12.499 32.755 0 45.253v0c-12.499 12.499-32.755 12.499-45.253 0l-316.781-316.781z" fill="#bfbfbf" p-id="1439"></path></svg>